<?xml version="1.0" encoding="UTF-8" standalone="no"?>
<!DOCTYPE svg PUBLIC "-//W3C//DTD SVG 1.1//EN" "http://www.w3.org/Graphics/SVG/1.1/DTD/svg11.dtd">
<svg width="100%" height="100%" viewBox="0 0 1280 1280" version="1.1" xmlns="http://www.w3.org/2000/svg" xmlns:xlink="http://www.w3.org/1999/xlink" xml:space="preserve" xmlns:serif="http://www.serif.com/" style="fill-rule:evenodd;clip-rule:evenodd;stroke-linejoin:round;stroke-miterlimit:2;">
    <g transform="matrix(0.644134,0,0,-0.644134,-1876.08,2685.28)">
        <path d="M4350,4103C4309,4088 4265,4011 4025,3530C3882,3244 3762,3010 3757,3010C3753,3010 3651,3080 3531,3165C3410,3250 3300,3325 3287,3331C3252,3347 3193,3334 3164,3305C3151,3292 3106,3213 3065,3129C2983,2963 2974,2923 3011,2876C3041,2837 3863,2253 3898,2246C3930,2238 3975,2252 4004,2278C4014,2287 4188,2627 4391,3033C4670,3590 4760,3779 4760,3806C4760,3859 4734,3888 4598,3986C4428,4110 4403,4122 4350,4103Z" style="fill-rule:nonzero;"/>
    </g>
</svg>
