<?xml version="1.0" encoding="UTF-8" standalone="no"?>
<!DOCTYPE svg PUBLIC "-//W3C//DTD SVG 1.1//EN" "http://www.w3.org/Graphics/SVG/1.1/DTD/svg11.dtd">
<svg width="100%" height="100%" viewBox="0 0 1280 1280" version="1.1" xmlns="http://www.w3.org/2000/svg" xmlns:xlink="http://www.w3.org/1999/xlink" xml:space="preserve" xmlns:serif="http://www.serif.com/" style="fill-rule:evenodd;clip-rule:evenodd;stroke-linejoin:round;stroke-miterlimit:2;">
    <g transform="matrix(0.6243,9.96463e-33,9.96463e-33,-0.6243,-3574.22,2619.95)">
        <path d="M6091,4099C6077,4094 6007,4028 5933,3953C5795,3811 5779,3785 5795,3723C5799,3705 5894,3602 6061,3435L6320,3175L6084,2940C5954,2811 5835,2687 5819,2666C5787,2623 5782,2584 5804,2542C5826,2501 6071,2263 6104,2250C6166,2227 6188,2243 6462,2517L6719,2774L6982,2514C7255,2243 7266,2235 7335,2247C7377,2255 7645,2523 7653,2564C7664,2626 7646,2648 7385,2910C7245,3051 7130,3170 7130,3176C7130,3181 7245,3300 7385,3440C7654,3709 7668,3727 7649,3793C7639,3831 7380,4093 7342,4105C7329,4109 7302,4109 7282,4105C7251,4099 7205,4058 6982,3837L6720,3575L6462,3832C6321,3973 6195,4093 6183,4099C6157,4112 6124,4112 6091,4099Z" style="fill-rule:nonzero;"/>
    </g>
</svg>
