<?xml version="1.0" encoding="UTF-8" standalone="no"?>
<!DOCTYPE svg PUBLIC "-//W3C//DTD SVG 1.1//EN" "http://www.w3.org/Graphics/SVG/1.1/DTD/svg11.dtd">
<svg width="100%" height="100%" viewBox="0 0 1280 1280" version="1.1" xmlns="http://www.w3.org/2000/svg" xmlns:xlink="http://www.w3.org/1999/xlink" xml:space="preserve" xmlns:serif="http://www.serif.com/" style="fill-rule:evenodd;clip-rule:evenodd;stroke-linejoin:round;stroke-miterlimit:2;">
    <g transform="matrix(0.1,0,0,-0.1,0,1280)">
        <path d="M1548,11770C1306,11729 1123,11568 1048,11330L1025,11255L1025,9790C1025,8186 1022,8279 1085,8145C1153,8003 1286,7881 1431,7830C1519,7799 1690,7791 1780,7814C1956,7858 2101,7973 2179,8131C2250,8275 2250,8272 2250,9020L2250,9685L3713,8224L5175,6762L5260,6721C5504,6602 5776,6646 5965,6835C6154,7024 6198,7296 6079,7540L6038,7625L3116,10549L3810,10552L4505,10555L4585,10583C4745,10640 4870,10750 4940,10895C4992,11004 5004,11065 4997,11196C4991,11323 4969,11398 4908,11491C4809,11645 4656,11743 4473,11770C4391,11782 1618,11782 1548,11770Z" style="fill-rule:nonzero;stroke:white;stroke-width:150px;"/>
        <path d="M8335,11773C8127,11743 7950,11618 7863,11439C7812,11335 7797,11269 7797,11160C7797,10898 7960,10673 8215,10583L8295,10555L8990,10552L9684,10549L8224,9087C7276,8139 6754,7609 6737,7579C6723,7554 6699,7497 6684,7454C6650,7354 6645,7201 6674,7105C6737,6894 6906,6727 7111,6674C7194,6652 7336,6652 7419,6674C7454,6683 7515,6707 7554,6727C7620,6761 7721,6859 9088,8224L10550,9685L10550,9015C10550,8467 10553,8332 10565,8276C10602,8101 10730,7939 10891,7862C11003,7808 11064,7796 11196,7802C11287,7806 11318,7812 11385,7838C11485,7878 11585,7952 11645,8033C11704,8110 11722,8146 11751,8240L11775,8315L11775,11255L11751,11330C11687,11536 11543,11681 11335,11751L11265,11775L9815,11776C9018,11777 8352,11775 8335,11773Z" style="fill-rule:nonzero;stroke:white;stroke-width:150px;"/>
        <path d="M5433,6139C5368,6128 5265,6090 5209,6055C5185,6040 4509,5373 3708,4572L2251,3116L2248,3810L2245,4505L2217,4583C2126,4840 1905,5001 1640,5003C1531,5003 1465,4988 1361,4937C1209,4863 1091,4719 1043,4550C1026,4488 1025,4411 1025,3015L1025,1545L1048,1472C1114,1261 1260,1115 1470,1049L1545,1025L4485,1025L4560,1049C4654,1078 4690,1096 4767,1155C4848,1215 4922,1315 4962,1415C4988,1482 4994,1513 4998,1604C5004,1736 4992,1797 4938,1909C4861,2070 4699,2198 4524,2235C4468,2247 4333,2250 3785,2250L3115,2250L4576,3713L6038,5175L6079,5260C6199,5504 6155,5775 5965,5966C5825,6106 5625,6171 5433,6139Z" style="fill-rule:nonzero;stroke:white;stroke-width:150px;"/>
        <path d="M7161,6139C6982,6107 6811,5984 6728,5825C6672,5717 6656,5651 6656,5530C6657,5408 6685,5309 6746,5212C6770,5173 7248,4688 8233,3703L9685,2250L9015,2250C8467,2250 8332,2247 8276,2235C8059,2189 7870,2007 7814,1789C7794,1712 7792,1576 7809,1500C7857,1297 8017,1122 8222,1053L8305,1025L11255,1025L11330,1049C11539,1116 11684,1261 11751,1470L11775,1545L11775,4495L11748,4576C11700,4717 11621,4821 11504,4900C11315,5026 11080,5038 10876,4933C10775,4881 10664,4767 10616,4667C10551,4532 10550,4529 10550,3785L10550,3115L9098,4567C8112,5552 7627,6030 7588,6054C7471,6128 7294,6163 7161,6139Z" style="fill-rule:nonzero;stroke:white;stroke-width:150px;"/>
    </g>
</svg>
