<?xml version="1.0" encoding="UTF-8" standalone="no"?>
<!DOCTYPE svg PUBLIC "-//W3C//DTD SVG 1.1//EN" "http://www.w3.org/Graphics/SVG/1.1/DTD/svg11.dtd">
<svg width="100%" height="100%" viewBox="0 0 1280 1280" version="1.1" xmlns="http://www.w3.org/2000/svg" xmlns:xlink="http://www.w3.org/1999/xlink" xml:space="preserve" xmlns:serif="http://www.serif.com/" style="fill-rule:evenodd;clip-rule:evenodd;stroke-linejoin:round;stroke-miterlimit:2;">
    <g transform="matrix(0.087527,0,0,-0.087527,79.8301,1200.18)">
        <path d="M314,12790C119,12749 -21,12548 5,12345C11,12294 388,11534 3045,6220C5946,419 6081,151 6127,110C6188,56 6284,11 6358,4C6476,-9 6616,44 6692,129C6723,164 7463,1637 9762,6235C12686,12084 12791,12297 12797,12361C12812,12534 12721,12687 12560,12764C12501,12791 12486,12794 12400,12794C12321,12793 12296,12789 12250,12768C12220,12755 10891,11874 9297,10812L6400,8880L3503,10812C1909,11874 580,12754 550,12768C489,12795 382,12805 314,12790Z" style="fill-rule:nonzero;"/>
    </g>
</svg>
