<?xml version="1.0" encoding="UTF-8" standalone="no"?>
<!DOCTYPE svg PUBLIC "-//W3C//DTD SVG 1.1//EN" "http://www.w3.org/Graphics/SVG/1.1/DTD/svg11.dtd">
<svg width="100%" height="100%" viewBox="0 0 1280 1280" version="1.1" xmlns="http://www.w3.org/2000/svg" xmlns:xlink="http://www.w3.org/1999/xlink" xml:space="preserve" xmlns:serif="http://www.serif.com/" style="fill-rule:evenodd;clip-rule:evenodd;stroke-linejoin:round;stroke-miterlimit:2;">
    <g transform="matrix(0.592774,0,0,-0.592774,-5006.61,2540.36)">
        <path d="M9354,4155C8966,4095 8710,3853 8710,3548C8710,3487 8713,3477 8739,3448L8768,3415L8920,3412C9023,3410 9082,3412 9101,3421C9138,3436 9165,3474 9174,3522C9183,3573 9234,3614 9323,3642C9382,3661 9418,3665 9520,3665C9652,3665 9710,3654 9792,3614C9846,3587 9870,3557 9870,3518C9870,3482 9853,3474 9714,3445C9565,3414 9475,3373 9411,3305C9351,3242 9334,3210 9309,3113C9284,3013 9284,2925 9310,2883C9342,2830 9360,2825 9525,2825C9653,2825 9679,2828 9702,2843C9732,2864 9760,2916 9760,2954C9760,2988 9776,2995 9922,3026C10081,3059 10152,3093 10223,3170C10359,3317 10381,3586 10273,3794C10133,4063 9744,4216 9354,4155Z" style="fill-rule:nonzero;"/>
    </g>
    <g transform="matrix(0.592774,0,0,-0.592774,-5006.61,2540.36)">
        <path d="M9425,2686C9365,2658 9338,2630 9311,2570C9251,2438 9327,2284 9470,2250C9616,2215 9754,2324 9753,2475C9753,2647 9579,2759 9425,2686Z" style="fill-rule:nonzero;"/>
    </g>
</svg>
