<?xml version="1.0" encoding="UTF-8" standalone="no"?>
<!DOCTYPE svg PUBLIC "-//W3C//DTD SVG 1.1//EN" "http://www.w3.org/Graphics/SVG/1.1/DTD/svg11.dtd">
<svg width="100%" height="100%" viewBox="0 0 1210 1280" version="1.1" xmlns="http://www.w3.org/2000/svg" xmlns:xlink="http://www.w3.org/1999/xlink" xml:space="preserve" xmlns:serif="http://www.serif.com/" style="fill-rule:evenodd;clip-rule:evenodd;stroke-linejoin:round;stroke-miterlimit:2;">
    <g transform="matrix(0.1,0,0,-0.1,0,1280)">
        <path d="M5972,12783C5966,12771 5982,12548 6016,12160C6045,11827 6069,11543 6070,11528C6070,11502 6070,11502 5978,11496C5518,11469 5386,11456 5100,11410C4049,11238 3127,10822 2330,10160C2166,10023 1792,9649 1656,9485C862,8528 394,7389 289,6155C273,5972 273,5523 289,5345C305,5157 340,4918 353,4902C359,4895 371,4890 381,4892C390,4894 608,5072 864,5288C1120,5503 1334,5680 1340,5680C1345,5680 1621,5592 1954,5485C2286,5378 2565,5290 2573,5290C2602,5290 2609,5321 2598,5410C2584,5529 2584,5941 2599,6085C2710,7165 3242,8074 4090,8635C4614,8982 5259,9188 5967,9236L6070,9243L6065,9199C6062,9175 6030,8840 5995,8455C5949,7951 5934,7752 5942,7743C5963,7718 5986,7731 6097,7833C6443,8149 6876,8716 7229,9315C7424,9645 7690,10212 7690,10298C7690,10309 7676,10364 7659,10421C7514,10912 7076,11621 6514,12280C6382,12435 6019,12800 5998,12800C5988,12800 5977,12792 5972,12783Z" style="fill-rule:nonzero;stroke:white;stroke-width:150px;"/>
        <path d="M8260,11025C8251,11014 8266,10891 8339,10418C8389,10092 8432,9817 8434,9808C8437,9796 8294,9667 7944,9365C7672,9131 7450,8933 7450,8926C7450,8905 7479,8885 7598,8826C8184,8533 8716,8041 9057,7475C9299,7074 9445,6649 9512,6150C9529,6023 9529,5557 9512,5420C9452,4939 9330,4534 9109,4082C9043,3948 9016,3901 9007,3908C8895,3997 7815,4790 7805,4790C7762,4790 7764,4745 7815,4519C7990,3757 8582,2537 9027,2023C9087,1954 9102,1947 9305,1905C9818,1797 10636,1813 11415,1946C11679,1991 12068,2084 12092,2108C12121,2137 12082,2160 11516,2439L10943,2722L10997,2819C11080,2964 11253,3313 11319,3468C11944,4928 11971,6440 11399,7861C10843,9245 9713,10431 8430,10980C8353,11013 8286,11040 8281,11040C8276,11040 8267,11033 8260,11025Z" style="fill-rule:nonzero;stroke:white;stroke-width:150px;"/>
        <path d="M2070,4954C1722,4931 1537,4910 1370,4874C1298,4858 1293,4855 1232,4791C932,4478 612,3921 338,3235C212,2921 94,2553 25,2258C2,2159 -1,2138 10,2124C18,2116 31,2111 41,2113C50,2116 284,2279 561,2477C838,2675 1070,2840 1077,2843C1085,2848 1123,2798 1186,2703C1802,1763 2565,1064 3480,600C4730,-33 6206,-170 7618,216C8367,421 9076,779 9613,1224C9679,1279 9693,1307 9668,1327C9655,1338 8536,1730 8520,1730C8508,1730 8518,1690 8365,2370C8291,2703 8225,2985 8220,2998C8215,3010 8203,3020 8195,3020C8186,3020 8135,2989 8082,2951C7595,2603 7022,2381 6400,2299C6277,2283 5966,2274 5810,2282C4801,2335 3887,2851 3210,3750C3087,3913 3037,3991 3046,4000C3051,4005 3354,4150 3720,4323C4367,4629 4385,4638 4385,4665C4385,4690 4379,4695 4330,4712C4025,4817 3554,4898 2995,4940C2856,4951 2175,4961 2070,4954Z" style="fill-rule:nonzero;stroke:white;stroke-width:150px;"/>
    </g>
</svg>
