<?xml version="1.0" encoding="UTF-8" standalone="no"?>
<!DOCTYPE svg PUBLIC "-//W3C//DTD SVG 1.1//EN" "http://www.w3.org/Graphics/SVG/1.1/DTD/svg11.dtd">
<svg width="100%" height="100%" viewBox="0 0 1280 1280" version="1.1" xmlns="http://www.w3.org/2000/svg" xmlns:xlink="http://www.w3.org/1999/xlink" xml:space="preserve" xmlns:serif="http://www.serif.com/" style="fill-rule:evenodd;clip-rule:evenodd;stroke-linejoin:round;stroke-miterlimit:2;">
    <g transform="matrix(0.66031,0,0,-0.66031,-35.4589,2738.07)">
        <path d="M845,4100C826.121,4097.84 818.504,4092.39 800,4065C774.929,4027.9 770,3842 770,3842L770,3646.87C770,3646.87 632,3642 499,3641C499,3641 306.833,3642.83 258,3640C239.895,3638.95 216.478,3627.92 205.144,3616.58C193.811,3605.25 190.545,3587.68 190,3572C187.476,3499.4 190,3181 190,3181C190,2834 192,2786 206,2764C240,2713 259,2710 525,2710L770,2710L770,2523C770,2352 772,2332 790,2302C819,2255 871,2235 921,2252C948,2261 1098,2386 1415,2663C1453.84,2697.18 1808.19,3009.01 1899,3092C1909.96,3102.01 1931.76,3134.79 1935,3151C1950,3219 1943,3227 1458,3651C1205,3873 1059.17,4008.17 957,4083C926.537,4105.31 871.167,4103 845,4100Z" style="fill-rule:nonzero;"/>
    </g>
</svg>
